<svg id="Calque_1" data-name="Calque 1" xmlns="http://www.w3.org/2000/svg" viewBox="0 0 211.62 236.14">
    <defs>
        <style>
            .cls-1,.cls-2{
                fill:none;
                stroke:currentColor;
                stroke-miterlimit:10;
            }
            .cls-1{
                stroke-width:5px;
            }
        </style>
    </defs>
    <path class="cls-1" d="M183.6,58.41a42.52,42.52,0,0,1-24.71,72.24,56.07,56.07,0,0,0-3.28-13.09,28.36,28.36,0,1,0-22.1-9.07l0,0a42.52,42.52,0,1,1-36.19-12.9,56.18,56.18,0,0,0,3.91,14.7,28.32,28.32,0,1,0,22.27,8.21A42.51,42.51,0,1,1,183.6,58.41Z"/>
    <circle class="cls-1" cx="102.95" cy="137.5" r="14.17"/>
    <circle class="cls-1" cx="152.99" cy="88.24" r="14.17"/>
    <path class="cls-1" d="M154.44,7.44c-6.13-6.13-15.6-6.62-21.13-1.09L4.79,134.87a2.64,2.64,0,0,1,.2,3.72l94,94c5.54-5.54,5-15-1.09-21.13l-71.8-71.8a2.11,2.11,0,0,0,.3-.37,2.71,2.71,0,0,0-.49-3.36Z"/>
    <circle class="cls-1" cx="158.6" cy="173.1" r="1.42"/>
    <circle class="cls-1" cx="187.72" cy="143.02" r="1.42"/>
    <circle class="cls-1" cx="197.74" cy="132.99" r="1.42"/>
    <circle class="cls-1" cx="207.7" cy="122.91" r="1.42"/>
    <circle class="cls-1" cx="138.56" cy="193.15" r="1.42"/>
    <circle class="cls-1" cx="148.51" cy="183.19" r="1.42"/>
    <circle class="cls-2" cx="24.15" cy="137.72" r="2.5"/>
    <circle class="cls-2" cx="3" cy="136.68" r="2.5"/>
</svg>